<svg width="34" height="34" viewBox="0 0 34 34" fill="none" xmlns="http://www.w3.org/2000/svg">
<g clip-path="url(#clip0_1_3359)">
<path d="M13.5609 -0.0196419C13.6949 -0.020781 13.8288 -0.0236948 13.9627 -0.0266294C14.0477 -0.0271859 14.1327 -0.0277423 14.2203 -0.0283155C14.298 -0.0292839 14.3758 -0.0302523 14.4559 -0.03125C14.811 0.0191455 15.0126 0.185638 15.2278 0.464803C15.4717 0.898362 15.4185 1.35235 15.4187 1.83858C15.4195 1.92106 15.4203 2.00354 15.4212 2.08851C15.422 2.62526 15.4171 3.11988 15.1572 3.6025C15.0518 3.7785 15.0518 3.7785 15.1288 3.94006C15.1546 3.9985 15.1804 4.05694 15.207 4.11715C15.3955 4.70307 15.4341 5.25162 15.4289 5.86401C15.4288 5.95637 15.4289 6.04874 15.429 6.1411C15.429 6.38926 15.4279 6.63739 15.4265 6.88554C15.4252 7.14583 15.4251 7.40613 15.4249 7.66642C15.4242 8.15817 15.4226 8.64991 15.4206 9.14165C15.4184 9.70198 15.4173 10.2623 15.4163 10.8226C15.4142 11.9742 15.4107 13.1257 15.4063 14.2773C15.4821 14.2903 15.4821 14.2903 15.5596 14.3035C15.8889 14.3776 16.0895 14.5468 16.2903 14.8127C16.5023 15.1818 16.5093 15.5205 16.4688 15.9375C16.3501 16.3347 16.1061 16.5931 15.8047 16.8671C15.9025 17.0717 16.016 17.2606 16.1367 17.4524C16.374 17.8459 16.4688 18.1265 16.4688 18.5937C17.17 18.5937 17.8713 18.5937 18.5938 18.5937C18.6011 18.0912 18.6061 17.5896 18.6055 17.0872C18.606 16.9164 18.6077 16.7456 18.6108 16.5749C18.6151 16.329 18.6146 16.0835 18.6132 15.8376C18.6167 15.7235 18.6167 15.7235 18.6202 15.6072C18.6163 15.3851 18.6048 15.2163 18.5274 15.0078C18.3557 14.8496 18.1885 14.7463 17.9812 14.6398C17.2063 14.2327 16.8053 13.3613 16.5315 12.5746C16.2376 11.5301 16.418 10.4699 16.9243 9.52225C17.4727 8.61184 18.3355 8.01423 19.3502 7.7241C20.3607 7.48777 21.4518 7.65073 22.3442 8.18401C23.3066 8.85442 23.9026 9.72056 24.1382 10.8701C24.2901 11.8601 24.0929 12.9207 23.5078 13.7461C22.9468 14.4559 22.9468 14.4559 22.5994 14.6344C22.2076 14.8317 22.2076 14.8317 21.9799 15.1878C21.9559 15.4073 21.9543 15.6168 21.961 15.8376C21.9606 15.9165 21.9601 15.9955 21.9597 16.0768C21.9591 16.3279 21.9635 16.5787 21.968 16.8298C21.9685 17.0004 21.9686 17.1711 21.9684 17.3417C21.968 17.7593 21.9744 18.176 21.9805 18.5937C22.6817 18.5937 23.383 18.5937 24.1055 18.5937C24.1037 18.4363 24.102 18.2788 24.1002 18.1166C24.0947 17.5944 24.091 17.0723 24.0883 16.5501C24.0865 16.2338 24.0842 15.9174 24.0804 15.6011C24.0768 15.2953 24.0748 14.9897 24.074 14.6839C24.0734 14.5677 24.0722 14.4515 24.0704 14.3353C24.0509 13.0259 24.0509 13.0259 24.5599 12.4877C24.7568 12.3029 24.905 12.2126 25.168 12.1523C25.1654 11.5675 25.1615 10.9827 25.1558 10.3979C25.1532 10.1263 25.151 9.85466 25.15 9.58303C25.149 9.32036 25.1467 9.05774 25.1435 8.79508C25.1425 8.69542 25.142 8.59575 25.142 8.49608C25.141 7.61788 25.0099 6.88598 24.3711 6.24215C23.7546 5.7435 23.1049 5.51464 22.3125 5.57808C21.7333 5.68903 21.3057 5.95874 20.8516 6.321C20.4709 6.60705 20.1565 6.66918 19.6853 6.60738C19.2373 6.51046 18.989 6.29943 18.7349 5.92672C18.5694 5.44869 18.5337 5.02151 18.7486 4.55346C19.5275 3.3532 21.262 2.58333 22.6 2.29031C23.0538 2.20023 23.4856 2.17302 23.9476 2.17629C24.0208 2.17627 24.0941 2.17625 24.1697 2.17623C24.4093 2.17632 24.649 2.17735 24.8886 2.1784C25.0558 2.17864 25.223 2.17883 25.3902 2.17897C25.7836 2.17942 26.1771 2.18046 26.5705 2.1818C27.063 2.18344 27.5555 2.18415 28.048 2.18488C28.9252 2.1863 29.8025 2.18854 30.6797 2.19137C30.6885 2.11903 30.6973 2.0467 30.7064 1.97217C30.7531 1.6835 30.8205 1.54877 31.0117 1.32808C31.4666 1.03751 31.8498 1.02374 32.3814 1.03341C32.4548 1.03294 32.5282 1.03246 32.6039 1.03198C33.0397 1.03538 33.3776 1.05262 33.7108 1.36362C33.9851 1.72242 34.0109 1.93453 34.0139 2.37868C34.0145 2.43938 34.0152 2.50008 34.0158 2.56262C34.0178 2.76415 34.0192 2.96568 34.0205 3.16723C34.0209 3.23604 34.0214 3.30486 34.0218 3.37576C34.024 3.7402 34.0256 4.10464 34.0269 4.46909C34.0281 4.77055 34.0304 5.07197 34.0337 5.37342C34.0377 5.73741 34.0398 6.10136 34.0404 6.46538C34.041 6.60395 34.0422 6.74252 34.0442 6.88109C34.0468 7.07551 34.0468 7.26978 34.0463 7.46421C34.0476 7.52108 34.049 7.57795 34.0503 7.63655C34.0458 8.01594 33.9481 8.23067 33.7112 8.52615C33.3471 8.88023 32.851 8.86306 32.3731 8.85689C32.3134 8.85766 32.2537 8.85843 32.1923 8.85923C31.7528 8.85731 31.368 8.80704 31.0102 8.52798C30.7933 8.25968 30.6825 8.04229 30.6133 7.70308C29.7089 7.71248 29.7089 7.71248 28.9635 8.16378C28.7241 8.47099 28.6143 8.70578 28.6075 9.09909C28.6061 9.16688 28.6048 9.23467 28.6035 9.30451C28.6023 9.37757 28.6012 9.45062 28.6001 9.52588C28.5987 9.60077 28.5973 9.67566 28.5959 9.75282C28.5916 9.99234 28.5877 10.2319 28.5837 10.4714C28.5809 10.6337 28.578 10.7959 28.5751 10.9582C28.5679 11.3562 28.5612 11.7543 28.5547 12.1523C28.6069 12.1725 28.6591 12.1928 28.7129 12.2136C28.8766 12.281 28.9881 12.3471 29.1233 12.4594C29.1789 12.5039 29.1789 12.5039 29.2356 12.5492C29.5535 12.9175 29.6568 13.2913 29.6474 13.7689C29.6474 13.8214 29.6474 13.874 29.6475 13.9281C29.6473 14.0999 29.6452 14.2716 29.6431 14.4433C29.6426 14.5632 29.6423 14.683 29.642 14.8028C29.641 15.1168 29.6384 15.4308 29.6354 15.7447C29.6327 16.0657 29.6315 16.3867 29.6302 16.7076C29.6273 17.3363 29.6228 17.965 29.6172 18.5937C29.7046 18.5927 29.792 18.5916 29.882 18.5905C30.2084 18.5869 30.5347 18.5847 30.8611 18.5828C31.002 18.5818 31.1428 18.5804 31.2837 18.5787C31.4869 18.5762 31.6902 18.5751 31.8934 18.5743C31.9868 18.5727 31.9868 18.5727 32.0822 18.5711C32.5949 18.571 33.0961 18.65 33.4895 19.0046C33.5303 19.0398 33.5712 19.075 33.6132 19.1112C34.0796 19.6755 34.0379 20.2534 34.0344 20.9472C34.0347 21.0652 34.0352 21.1831 34.0358 21.3011C34.037 21.6205 34.0365 21.9399 34.0357 22.2593C34.035 22.5944 34.0356 22.9294 34.0361 23.2644C34.0365 23.8272 34.0359 24.3899 34.0346 24.9526C34.0332 25.602 34.0337 26.2513 34.0351 26.9006C34.0363 27.4592 34.0365 28.0178 34.0358 28.5763C34.0354 28.9095 34.0353 29.2426 34.0362 29.5757C34.037 29.8892 34.0364 30.2026 34.0349 30.5161C34.0346 30.6307 34.0347 30.7453 34.0352 30.8599C34.0399 31.8639 33.8735 32.5777 33.1596 33.317C32.6463 33.7927 32.0696 34.0103 31.3797 34.0089C31.3294 34.009 31.2791 34.0092 31.2273 34.0093C31.0577 34.0098 30.8881 34.0098 30.7186 34.0097C30.5961 34.01 30.4737 34.0102 30.3513 34.0105C30.0141 34.0111 29.6769 34.0114 29.3397 34.0116C28.9764 34.0118 28.613 34.0125 28.2496 34.013C27.3717 34.0144 26.4938 34.015 25.6158 34.0156C25.2025 34.0159 24.7892 34.0163 24.3758 34.0166C23.002 34.0177 21.6281 34.0187 20.2543 34.0192C20.1654 34.0192 20.0766 34.0192 19.9877 34.0193C19.9437 34.0193 19.8996 34.0193 19.8542 34.0193C19.631 34.0194 19.4078 34.0195 19.1845 34.0196C19.1402 34.0196 19.0959 34.0196 19.0503 34.0196C17.6142 34.0201 16.1782 34.0217 14.7421 34.0239C13.2236 34.0261 11.7052 34.0274 10.1867 34.0277C9.35901 34.0278 8.53136 34.0284 7.7037 34.0301C6.99886 34.0315 6.29403 34.0321 5.58919 34.0314C5.22959 34.0311 4.87002 34.0312 4.51043 34.0325C4.18104 34.0337 3.85167 34.0336 3.52227 34.0326C3.40331 34.0324 3.28434 34.0327 3.16538 34.0335C2.15057 34.0398 1.43102 33.882 0.68301 33.1595C0.210331 32.6495 -0.0099452 32.0737 -0.0097622 31.3878C-0.0100064 31.3386 -0.0102503 31.2894 -0.0105019 31.2387C-0.0112335 31.0737 -0.01149 30.9087 -0.0117432 30.7438C-0.0121593 30.6255 -0.0126007 30.5073 -0.0130655 30.389C-0.0144616 30.0007 -0.0151507 29.6123 -0.0158125 29.2239C-0.0160813 29.0901 -0.0163543 28.9564 -0.0166322 28.8226C-0.0178971 28.1942 -0.0188421 27.5657 -0.0193954 26.9373C-0.0200445 26.2121 -0.0217931 25.487 -0.024476 24.7618C-0.0264792 24.2011 -0.0274621 23.6404 -0.027682 23.0797C-0.0278381 22.7449 -0.0284329 22.4101 -0.0301038 22.0753C-0.0316507 21.7603 -0.0319297 21.4453 -0.0312478 21.1302C-0.0312149 21.0148 -0.0316345 20.8994 -0.0325468 20.7839C-0.0411624 19.629 -0.0411624 19.629 0.386775 19.1112C0.427607 19.076 0.46844 19.0408 0.510509 19.0046C0.550485 18.9686 0.590461 18.9325 0.631648 18.8954C1.45818 18.3829 2.2644 18.5937 3.25392 18.5937C3.25392 17.1474 3.25392 15.7011 3.25392 14.2109C3.05669 14.189 2.85946 14.1671 2.65626 14.1445C1.72959 13.9054 0.928223 13.1764 0.447653 12.3683C0.0415776 11.6097 -0.0526459 10.8971 -0.0396286 10.0504C-0.0373377 9.88583 -0.0382649 9.72154 -0.0395475 9.55701C-0.0384123 8.36619 0.286928 7.35349 1.13125 6.49247C2.08347 5.5721 3.17092 5.44527 4.44923 5.44527C4.44923 6.54098 4.44923 7.63668 4.44923 8.76558C5.15048 8.76558 5.85173 8.76558 6.57423 8.76558C6.57423 7.66988 6.57423 6.57418 6.57423 5.44527C7.95133 5.44527 8.979 5.65496 9.97418 6.63721C10.9952 7.70808 11.0561 9.04458 11.0293 10.4386C10.992 11.6185 10.513 12.5938 9.66212 13.4073C9.0838 13.8934 8.5091 14.066 7.76954 14.2773C7.74763 15.7017 7.72571 17.1261 7.70314 18.5937C8.77692 18.5937 9.85071 18.5937 10.957 18.5937C10.979 18.3965 11.0009 18.1993 11.0234 17.9961C11.1101 17.7704 11.1101 17.7704 11.2144 17.5727C11.2484 17.5065 11.2825 17.4402 11.3176 17.3719C11.4081 17.2219 11.4906 17.1149 11.6211 17C11.5325 16.8058 11.4324 16.6596 11.2891 16.5019C10.9687 16.1495 10.9271 15.8811 10.9363 15.4091C10.9761 15.0216 11.1294 14.7439 11.4136 14.4807C11.6301 14.3378 11.767 14.3107 12.0195 14.2773C12.0194 14.2294 12.0192 14.1815 12.019 14.1321C12.0146 12.9636 12.0113 11.7952 12.0092 10.6267C12.0082 10.0616 12.0068 9.49658 12.0045 8.93152C12.0025 8.43876 12.0012 7.946 12.0008 7.45324C12.0005 7.19255 11.9999 6.93187 11.9985 6.67119C11.9971 6.42531 11.9967 6.17945 11.997 5.93357C11.9969 5.80135 11.9959 5.66914 11.9948 5.53692C11.9967 4.96711 12.0694 4.46612 12.2945 3.94018C12.3681 3.787 12.3681 3.787 12.3088 3.63363C12.2832 3.585 12.2576 3.53638 12.2312 3.48629C11.9848 3.00858 12.003 2.53756 11.9999 2.00841C11.9992 1.91768 11.9978 1.82695 11.9959 1.73623C11.9842 1.198 11.9806 0.786927 12.2852 0.33199C12.6944 -0.0480045 13.0195 -0.0164357 13.5609 -0.0196419ZM13.2149 1.12887C13.2095 1.40835 13.2055 1.68773 13.2024 1.96724C13.2007 2.04625 13.1991 2.12527 13.1973 2.20667C13.1883 2.76242 13.1883 2.76242 13.4141 3.25387C13.6113 3.25387 13.8085 3.25387 14.0117 3.25387C14.2849 2.85664 14.2332 2.43349 14.2234 1.96724C14.2225 1.88669 14.2216 1.80614 14.2207 1.72315C14.2183 1.52504 14.2148 1.32695 14.2109 1.12887C13.8822 1.12887 13.5535 1.12887 13.2149 1.12887ZM31.8086 2.19137C31.8086 3.98832 31.8086 5.78527 31.8086 7.63668C32.1592 7.63668 32.5098 7.63668 32.8711 7.63668C32.8711 5.83973 32.8711 4.04277 32.8711 2.19137C32.5205 2.19137 32.1698 2.19137 31.8086 2.19137ZM19.8555 5.11324C19.8023 5.25567 19.8023 5.25567 19.7891 5.37887C19.9059 5.4346 19.9059 5.4346 20.0547 5.44527C20.2079 5.34707 20.2079 5.34707 20.3577 5.20455C21.225 4.47286 22.2147 4.3644 23.3086 4.44918C24.1711 4.60082 25.0606 5.09737 25.5775 5.81907C26.0743 6.58386 26.2875 7.32116 26.3342 8.22603C26.3371 8.27808 26.34 8.33013 26.3429 8.38375C26.3499 8.51102 26.3566 8.6383 26.3633 8.76558C26.7139 8.76558 27.0645 8.76558 27.4258 8.76558C27.4504 8.66971 27.4751 8.57384 27.5005 8.47506C27.7134 7.77497 28.0901 7.23263 28.7332 6.87275C29.1791 6.66462 29.5765 6.60212 30.067 6.59649C30.3099 6.5712 30.4655 6.48818 30.6797 6.37496C30.6863 5.97195 30.6911 5.56897 30.6943 5.16592C30.6956 5.02877 30.6974 4.89164 30.6997 4.75451C30.703 4.55752 30.7045 4.36059 30.7056 4.16358C30.707 4.10215 30.7084 4.04072 30.7098 3.97742C30.7098 3.92027 30.7098 3.86312 30.7099 3.80423C30.7104 3.75395 30.711 3.70366 30.7116 3.65185C30.6882 3.51284 30.6882 3.51284 30.5851 3.4037C30.3197 3.27425 30.0644 3.29258 29.7729 3.29449C29.6753 3.29397 29.6753 3.29397 29.5758 3.29344C29.3603 3.29256 29.1448 3.29314 28.9293 3.29381C28.7788 3.29368 28.6284 3.29349 28.478 3.29324C28.162 3.29294 27.8461 3.29337 27.5301 3.2943C27.1278 3.29543 26.7255 3.29479 26.3231 3.29359C26.012 3.29286 25.7008 3.2931 25.3896 3.29361C25.2414 3.29375 25.0933 3.29359 24.9452 3.29312C23.0661 3.28849 21.164 3.62228 19.8555 5.11324ZM13.4141 4.44918C13.256 4.7295 13.19 4.92969 13.1909 5.251C13.1906 5.33033 13.1903 5.40966 13.1901 5.4914C13.1908 5.57752 13.1915 5.66364 13.1922 5.75237C13.1923 5.84468 13.1923 5.93698 13.1921 6.02929C13.1921 6.27911 13.1933 6.52892 13.1947 6.77873C13.1959 7.04009 13.196 7.30145 13.1963 7.56282C13.1969 8.0574 13.1985 8.55197 13.2005 9.04655C13.2027 9.60976 13.2038 10.173 13.2048 10.7362C13.2069 11.8944 13.2105 13.0527 13.2149 14.2109C13.5436 14.2109 13.8723 14.2109 14.2109 14.2109C14.2156 12.997 14.2191 11.783 14.2213 10.5691C14.2223 10.0054 14.2237 9.44176 14.226 8.8781C14.228 8.38678 14.2292 7.89546 14.2297 7.40414C14.2299 7.14401 14.2306 6.8839 14.232 6.62378C14.2334 6.37884 14.2338 6.1339 14.2335 5.88895C14.2336 5.75643 14.2346 5.62391 14.2357 5.4914C14.2355 5.41206 14.2352 5.33273 14.2349 5.251C14.2351 5.18232 14.2353 5.11363 14.2355 5.04287C14.2065 4.81243 14.1251 4.65028 14.0117 4.44918C13.8145 4.44918 13.6173 4.44918 13.4141 4.44918ZM1.89855 7.3835C1.23909 8.13533 1.09405 8.91479 1.09986 9.89034C1.09854 9.96905 1.09721 10.0478 1.09584 10.1289C1.09631 10.979 1.3257 11.7202 1.91334 12.3471C2.67219 13.0585 3.42745 13.1484 4.44923 13.1484C4.44923 16.0411 4.44923 18.9337 4.44923 21.914C5.15048 21.914 5.85173 21.914 6.57423 21.914C6.57423 19.0214 6.57423 16.1287 6.57423 13.1484C6.8372 13.1484 7.10017 13.1484 7.3711 13.1484C8.0684 13.0583 8.70088 12.749 9.18612 12.2361C9.69954 11.5399 9.84293 10.8789 9.84774 10.0311C9.8485 9.9381 9.84985 9.84506 9.85182 9.75203C9.87149 8.82319 9.68558 8.07237 9.04605 7.3752C8.69332 7.04051 8.20316 6.70699 7.70314 6.70699C7.70314 7.75887 7.70314 8.81074 7.70314 9.89449C6.23489 9.89449 4.76665 9.89449 3.25392 9.89449C3.25392 8.84262 3.25392 7.79074 3.25392 6.70699C2.78226 6.70699 2.23845 7.06439 1.89855 7.3835ZM18.1455 9.84884C17.643 10.5281 17.5386 11.1902 17.5977 12.0195C17.757 12.7452 18.1795 13.3916 18.793 13.8125C19.0938 13.9715 19.4 14.1033 19.7227 14.2109C19.7446 16.7529 19.7665 19.295 19.7891 21.914C20.1178 21.914 20.4465 21.914 20.7852 21.914C20.8071 19.372 20.829 16.83 20.8516 14.2109C21.1145 14.1013 21.3775 13.9918 21.6484 13.8789C22.3017 13.435 22.7047 12.9195 22.9488 12.1658C23.098 11.3796 22.9695 10.6868 22.5501 10.0071C22.125 9.40137 21.5603 9.03145 20.8516 8.83199C19.771 8.72871 18.8553 8.98602 18.1455 9.84884ZM26.3633 9.89449C26.3633 10.5957 26.3633 11.297 26.3633 12.0195C26.692 12.0195 27.0207 12.0195 27.3594 12.0195C27.3594 11.3182 27.3594 10.617 27.3594 9.89449C27.0307 9.89449 26.702 9.89449 26.3633 9.89449ZM25.4015 13.3417C25.2439 13.5589 25.2261 13.6785 25.2264 13.9443C25.2263 14.0144 25.2262 14.0844 25.2261 14.1565C25.2264 14.2337 25.2266 14.3108 25.2268 14.3903C25.2268 14.4713 25.2268 14.5523 25.2268 14.6357C25.2269 14.8581 25.2272 15.0805 25.2276 15.3029C25.2281 15.5352 25.2281 15.7675 25.2282 15.9998C25.2284 16.4398 25.2289 16.8798 25.2296 17.3198C25.2303 17.8207 25.2307 18.3216 25.231 18.8225C25.2317 19.853 25.233 20.8835 25.2344 21.914C26.3082 21.914 27.382 21.914 28.4883 21.914C28.4958 20.8288 28.5019 19.7436 28.5055 18.6584C28.5072 18.1545 28.5095 17.6506 28.5133 17.1467C28.5166 16.7075 28.5188 16.2683 28.5195 15.8291C28.52 15.5966 28.521 15.3641 28.5234 15.1315C28.5261 14.8719 28.5261 14.6123 28.526 14.3526C28.5278 14.237 28.5278 14.237 28.5296 14.1191C28.5293 13.6983 28.5293 13.6983 28.3369 13.3331C28.1643 13.22 28.0868 13.1732 27.885 13.1729C27.8341 13.1721 27.7831 13.1712 27.7306 13.1704C27.6765 13.1713 27.6224 13.1721 27.5666 13.173C27.5103 13.1729 27.4539 13.1727 27.3958 13.1726C27.2769 13.1726 27.1581 13.1735 27.0393 13.1752C26.8575 13.1774 26.6759 13.1765 26.4942 13.1752C26.3785 13.1757 26.2629 13.1763 26.1472 13.1772C26.0659 13.1767 26.0659 13.1767 25.9829 13.1762C25.7401 13.1812 25.5969 13.1914 25.4015 13.3417ZM12.1524 15.4062C12.086 15.6132 12.076 15.6514 12.1762 15.8576C12.4896 16.2446 12.7366 16.4132 13.2411 16.4731C14.0908 16.5359 14.0908 16.5359 14.8711 16.2586C15.0981 16.0346 15.2391 15.8414 15.3399 15.539C15.2225 15.3943 15.2225 15.3943 15.0751 15.3902C15.0211 15.3905 14.9672 15.3908 14.9116 15.3911C14.8198 15.3911 14.8198 15.3911 14.7263 15.3912C14.6271 15.3922 14.6271 15.3922 14.5259 15.3932C14.4244 15.3935 14.4244 15.3935 14.321 15.3938C14.1044 15.3946 13.8879 15.3962 13.6714 15.3979C13.5248 15.3986 13.3783 15.3992 13.2317 15.3997C12.8719 15.4012 12.5121 15.4034 12.1524 15.4062ZM12.2982 17.9692C12.0678 18.4321 12.068 18.8568 12.073 19.3654C12.0732 19.4385 12.0734 19.5115 12.0735 19.5868C12.0743 19.8188 12.076 20.0509 12.0776 20.2829C12.0783 20.4408 12.0789 20.5986 12.0795 20.7565C12.0808 21.1423 12.0834 21.5282 12.0859 21.914C13.1597 21.914 14.2335 21.914 15.3399 21.914C15.3453 21.3799 15.3508 20.8457 15.3565 20.2954C15.3589 20.1281 15.3613 19.9608 15.3638 19.7884C15.3646 19.6539 15.3652 19.5194 15.3658 19.3849C15.3678 19.2824 15.3678 19.2824 15.3699 19.1779C15.3702 18.6236 15.2572 18.1725 14.9204 17.7255C14.6077 17.5029 14.1877 17.541 13.8201 17.5434C13.6842 17.5437 13.549 17.5393 13.4132 17.5347C12.913 17.5335 12.6083 17.5558 12.2982 17.9692ZM1.2389 19.899C1.05706 20.2661 1.09473 20.6357 1.10817 21.0383C1.11501 21.3273 1.12186 21.6163 1.12892 21.914C1.83017 21.914 2.53142 21.914 3.25392 21.914C3.25392 21.2128 3.25392 20.5115 3.25392 19.789C2.96493 19.7822 2.67593 19.7753 2.37818 19.7683C2.2876 19.7652 2.19702 19.7622 2.10369 19.7591C1.77943 19.7554 1.53223 19.7537 1.2389 19.899ZM7.70314 19.789C7.70314 20.4903 7.70314 21.1915 7.70314 21.914C8.77692 21.914 9.85071 21.914 10.957 21.914C10.957 21.2128 10.957 20.5115 10.957 19.789C9.88325 19.789 8.80946 19.789 7.70314 19.789ZM16.4688 19.789C16.4688 20.4903 16.4688 21.1915 16.4688 21.914C17.17 21.914 17.8713 21.914 18.5938 21.914C18.5938 21.2128 18.5938 20.5115 18.5938 19.789C17.8925 19.789 17.1913 19.789 16.4688 19.789ZM21.9805 19.789C21.9805 20.4903 21.9805 21.1915 21.9805 21.914C22.6817 21.914 23.383 21.914 24.1055 21.914C24.1055 21.2128 24.1055 20.5115 24.1055 19.789C23.4042 19.789 22.703 19.789 21.9805 19.789ZM29.6172 19.789C29.6172 20.4903 29.6172 21.1915 29.6172 21.914C30.691 21.914 31.7648 21.914 32.8711 21.914C32.8779 21.625 32.8848 21.336 32.8919 21.0383C32.8949 20.9477 32.8979 20.8571 32.901 20.7638C32.9018 20.6918 32.9027 20.6198 32.9035 20.5457C32.9053 20.4723 32.907 20.3989 32.9088 20.3233C32.8561 20.0405 32.776 19.9518 32.5391 19.789C32.3143 19.745 32.0958 19.7503 31.8675 19.7566C31.8031 19.7571 31.7387 19.7575 31.6724 19.758C31.4673 19.7599 31.2624 19.764 31.0574 19.7683C30.9181 19.7699 30.7789 19.7715 30.6396 19.7728C30.2987 19.7762 29.9581 19.7827 29.6172 19.789ZM1.12892 23.0429C1.12892 23.3936 1.12892 23.7442 1.12892 24.1054C4.72282 24.1054 8.31673 24.1054 12.0195 24.1054C12.0195 23.7548 12.0195 23.4042 12.0195 23.0429C8.42564 23.0429 4.83173 23.0429 1.12892 23.0429ZM13.2149 23.0429C13.2149 23.7442 13.2149 24.4454 13.2149 25.1679C15.7131 25.1679 18.2113 25.1679 20.7852 25.1679C20.7852 24.4667 20.7852 23.7654 20.7852 23.0429C18.287 23.0429 15.7888 23.0429 13.2149 23.0429ZM21.9805 23.0429C21.9805 23.3936 21.9805 23.7442 21.9805 24.1054C25.5744 24.1054 29.1683 24.1054 32.8711 24.1054C32.8711 23.7548 32.8711 23.4042 32.8711 23.0429C29.2772 23.0429 25.6833 23.0429 21.9805 23.0429ZM1.12892 25.2343C1.12481 26.2643 1.1207 27.2943 1.11647 28.3554C1.11465 28.6799 1.11284 29.0045 1.11097 29.3388C1.1103 29.6312 1.1103 29.6312 1.1099 29.9235C1.1096 30.0532 1.1089 30.1828 1.10788 30.3125C1.10642 30.5095 1.10623 30.7065 1.1063 30.9035C1.10558 30.9607 1.10487 31.0179 1.10413 31.0768C1.10686 31.612 1.24877 32.0378 1.61503 32.4368C2.01449 32.8028 2.41745 32.8811 2.94249 32.8798C2.99174 32.8799 3.041 32.8801 3.09175 32.8802C3.25771 32.8806 3.42366 32.8805 3.58962 32.8804C3.70945 32.8806 3.82927 32.8808 3.9491 32.881C4.2791 32.8815 4.6091 32.8816 4.9391 32.8817C5.29472 32.8818 5.65034 32.8823 6.00597 32.8828C6.7839 32.8837 7.56184 32.8841 8.33978 32.8843C8.82535 32.8845 9.31093 32.8848 9.79651 32.8851C11.1404 32.8859 12.4844 32.8866 13.8283 32.8868C13.9144 32.8868 14.0004 32.8869 14.0891 32.8869C14.1753 32.8869 14.2616 32.8869 14.3504 32.8869C14.5252 32.887 14.7 32.887 14.8748 32.887C14.9614 32.887 15.0481 32.887 15.1375 32.8871C16.5426 32.8873 17.9477 32.8885 19.3528 32.89C20.7948 32.8916 22.2367 32.8924 23.6787 32.8925C24.4886 32.8926 25.2985 32.8929 26.1083 32.8941C26.7979 32.8952 27.4874 32.8955 28.177 32.895C28.5289 32.8947 28.8808 32.8948 29.2327 32.8957C29.5548 32.8965 29.8769 32.8965 30.1991 32.8957C30.3156 32.8955 30.4322 32.8957 30.5487 32.8963C30.7072 32.897 30.8656 32.8966 31.0241 32.8958C31.0919 32.8965 31.0919 32.8965 31.161 32.8973C31.6607 32.8919 32.0709 32.7208 32.4369 32.3849C32.7311 32.0638 32.8797 31.7056 32.8791 31.2715C32.8792 31.2182 32.8793 31.1648 32.8794 31.1099C32.879 31.0226 32.879 31.0226 32.8786 30.9337C32.8786 30.8711 32.8787 30.8085 32.8787 30.7441C32.8786 30.5417 32.8781 30.3394 32.8776 30.137C32.8775 30.012 32.8774 29.887 32.8774 29.762C32.877 29.2987 32.8761 28.8354 32.8753 28.372C32.8739 27.3366 32.8725 26.3012 32.8711 25.2343C29.6059 25.2343 26.3407 25.2343 22.9766 25.2343C22.9766 25.9575 22.9766 26.6807 22.9766 27.4257C22.6464 28.3336 22.3247 28.9418 21.4552 29.3609C21.3865 29.3891 21.3865 29.3891 21.3164 29.4179C21.2633 29.4406 21.2102 29.4633 21.1555 29.4866C20.8241 29.5761 20.5079 29.5709 20.1661 29.5711C20.0533 29.5719 20.0533 29.5719 19.9382 29.5728C19.6898 29.5744 19.4414 29.5749 19.193 29.5754C19.0198 29.576 18.8466 29.5766 18.6734 29.5772C18.3102 29.5784 17.947 29.5788 17.5838 29.579C17.1658 29.5792 16.7478 29.5812 16.3298 29.584C15.9259 29.5866 15.5221 29.5873 15.1182 29.5874C14.9472 29.5877 14.7763 29.5885 14.6053 29.5899C14.3653 29.5917 14.1255 29.5914 13.8855 29.5905C13.8157 29.5915 13.7459 29.5925 13.674 29.5935C12.9539 29.5865 12.2791 29.3195 11.7539 28.8203C10.7891 27.7612 11.0234 26.7091 11.0234 25.2343C7.75825 25.2343 4.49306 25.2343 1.12892 25.2343ZM12.0859 25.6992C12.0801 25.9191 12.0766 26.1391 12.0735 26.3591C12.0718 26.4206 12.0702 26.4821 12.0684 26.5455C12.0623 27.1277 12.1624 27.62 12.5674 28.0563C12.8866 28.3307 13.2863 28.4957 13.7063 28.498C13.7959 28.4987 13.7959 28.4987 13.8874 28.4995C13.9855 28.4997 13.9855 28.4997 14.0856 28.5C14.1546 28.5004 14.2236 28.5009 14.2947 28.5013C14.5236 28.5026 14.7525 28.5034 14.9814 28.5041C15.0596 28.5043 15.1378 28.5046 15.2183 28.5049C15.6324 28.5063 16.0464 28.5072 16.4604 28.5078C16.8876 28.5086 17.3147 28.5109 17.7419 28.5135C18.0707 28.5152 18.3995 28.5158 18.7284 28.516C18.8858 28.5164 19.0432 28.5171 19.2006 28.5184C19.4214 28.52 19.6421 28.5199 19.8629 28.5195C19.9598 28.5207 19.9598 28.5207 20.0587 28.522C20.6215 28.5178 21.1053 28.3556 21.5156 27.957C21.9103 27.4496 21.9334 26.9858 21.9224 26.3674C21.9218 26.303 21.9212 26.2386 21.9206 26.1722C21.919 26.0145 21.9168 25.8569 21.9141 25.6992C21.8621 25.7516 21.8102 25.804 21.7566 25.8579C21.4148 26.1973 21.1917 26.3046 20.7114 26.3062C20.6429 26.3065 20.5744 26.3069 20.5038 26.3073C20.429 26.3074 20.3542 26.3075 20.2772 26.3075C20.1586 26.308 20.1586 26.308 20.0376 26.3085C19.8209 26.3093 19.6043 26.3098 19.3876 26.3101C19.2522 26.3103 19.1167 26.3106 18.9813 26.3109C18.5572 26.3118 18.1332 26.3124 17.7091 26.3127C17.2201 26.313 16.7311 26.3142 16.2421 26.3161C15.8637 26.3175 15.4853 26.3182 15.107 26.3183C14.8811 26.3184 14.6553 26.3187 14.4295 26.3199C14.1775 26.3211 13.9256 26.3209 13.6736 26.3205C13.5991 26.3211 13.5246 26.3217 13.4478 26.3224C13.0254 26.3201 12.6934 26.3017 12.3752 25.991C12.3368 25.939 12.3368 25.939 12.2976 25.8859C12.2257 25.7935 12.2257 25.7935 12.1524 25.6992C12.1304 25.6992 12.1085 25.6992 12.0859 25.6992Z" fill="#6B38B2"/>
<path d="M21.2499 10.0937C21.6419 10.4073 21.9365 10.8534 21.9962 11.3559C22.0147 11.8833 21.8649 12.3439 21.5114 12.7416C21.1671 13.0548 20.7405 13.1832 20.287 13.248C19.7741 13.1747 19.307 13.0189 18.9547 12.6252C18.6885 12.2324 18.5322 11.7629 18.5936 11.289C18.6991 10.7721 18.9521 10.3808 19.382 10.0703C20.0018 9.69978 20.6269 9.75972 21.2499 10.0937ZM19.8927 11.1313C19.7559 11.3393 19.744 11.4428 19.789 11.6874C19.9162 11.8922 19.9162 11.8922 20.121 12.0195C20.3768 12.0239 20.5193 12.011 20.7145 11.841C20.8075 11.6386 20.8172 11.5095 20.785 11.289C20.6896 11.1216 20.6896 11.1216 20.5194 11.0234C20.2555 10.9857 20.1167 10.982 19.8927 11.1313Z" fill="#6B38B2"/>
</g>
<defs>
<clipPath id="clip0_1_3359">
<rect width="34" height="34" fill="white"/>
</clipPath>
</defs>
</svg>
